<svg width="219" height="110" viewBox="0 0 219 110" fill="none" xmlns="http://www.w3.org/2000/svg">
<path d="M142.404 39.5362V40.6087H119.655V39.5362C119.655 29.4243 123.303 19.8318 131.494 12.753C139.698 5.66281 152.57 1 171.185 1C188.066 1 199.761 4.64264 207.219 10.6433C214.643 16.6167 218 25.0335 218 34.913C218 44.1337 214.823 50.9583 209.249 56.1408C203.636 61.3588 195.528 64.9708 185.581 67.5829C185.58 67.5831 185.579 67.5833 185.578 67.5835L161 73.9596L160.986 73.9633L160.971 73.9675C155.502 75.5611 151.277 77.1604 148.428 79.5176C145.492 81.9472 144.088 85.1178 144.088 89.5942V90.6904L145.18 90.59L174.598 87.8841H217.663V107.406H119.487V93.1014C119.487 83.8574 121.591 76.9905 126.493 71.509C131.428 65.9902 139.303 61.7541 151.111 58.027C151.112 58.0267 151.113 58.0264 151.114 58.0261L180.066 49.1006L180.076 49.0975L180.086 49.0942C185.155 47.414 188.793 45.7242 191.153 43.4674C193.582 41.1455 194.577 38.3092 194.577 34.5942C194.577 32.4704 194.27 30.5009 193.458 28.7507C192.64 26.986 191.334 25.5015 189.433 24.3192C185.687 21.9901 179.634 20.8406 170.343 20.8406C159.945 20.8406 152.94 22.3109 148.528 25.4496C144.021 28.6556 142.404 33.4552 142.404 39.5362ZM111.804 55C111.804 71.4572 106.818 84.9304 97.4699 94.2878C88.1228 103.644 74.3002 109 56.402 109C38.4185 109 24.5969 103.643 15.2717 94.2886C5.94511 84.9322 1 71.4595 1 55C1 38.6213 5.94453 25.1476 15.2725 15.7705C24.5985 6.39519 38.4206 1 56.402 1C74.2982 1 88.1212 6.3946 97.4691 15.7712C106.819 25.1494 111.804 38.6235 111.804 55ZM26.1066 55C26.1066 66.5418 28.0428 74.7977 32.935 80.146C37.8492 85.5183 45.5267 87.7246 56.402 87.7246C67.1954 87.7246 74.8703 85.5172 79.8043 80.1476C84.7176 74.8007 86.6973 66.5461 86.6973 55C86.6973 43.4539 84.7176 35.1993 79.8043 29.8524C74.8703 24.4828 67.1954 22.2754 56.402 22.2754C45.5267 22.2754 37.8492 24.4817 32.935 29.854C28.0428 35.2023 26.1066 43.4582 26.1066 55Z" stroke="#1ED760" stroke-width="2"/>
</svg>
