<svg width="181" height="123" viewBox="0 0 181 123" fill="none" xmlns="http://www.w3.org/2000/svg">
<path d="M155.192 34.9391V33.9391H154.192H124.452V17.5783H128.456C135.129 17.5783 140.845 16.817 145.668 14.4933C150.372 12.2264 154.139 8.51549 157.127 2.78261H180V120.217H155.192V34.9391ZM118.743 61.5C118.743 79.9403 113.438 95.0451 103.491 105.533C93.5517 116.013 78.8678 122 59.8715 122C40.7848 122 26.1018 116.013 16.1857 105.534C6.2618 95.0468 1 79.9425 1 61.5C1 43.1477 6.26127 28.0424 16.1864 17.5322C26.1035 7.03058 40.7869 1 59.8715 1C78.8657 1 93.55 7.02995 103.49 17.533C113.438 28.0442 118.743 43.1498 118.743 61.5ZM27.7741 61.5C27.7741 74.3902 29.8268 83.5739 34.9891 89.5187C40.1853 95.5025 48.3206 97.9739 59.8715 97.9739C71.3354 97.9739 79.468 95.5014 84.6854 89.5204C89.8702 83.5768 91.969 74.3942 91.969 61.5C91.969 48.6058 89.8702 39.4232 84.6854 33.4796C79.468 27.4986 71.3354 25.0261 59.8715 25.0261C48.3206 25.0261 40.1853 27.4975 34.9891 33.4813C29.8268 39.4261 27.7741 48.6098 27.7741 61.5Z" stroke="#1ED760" stroke-width="2"/>
</svg>
