<svg width="32" height="32" viewBox="0 0 32 32" fill="none" xmlns="http://www.w3.org/2000/svg">
<rect width="32" height="32" rx="16" fill="black" fill-opacity="0.06"/>
<g clip-path="url(#clip0_9_309)">
<path d="M22.3916 10.1824C22.3865 10.1725 22.378 10.1647 22.3677 10.1605C21.1764 9.61391 19.9191 9.22414 18.6275 9.00096C18.6158 8.99877 18.6037 9.00035 18.5929 9.00545C18.5821 9.01056 18.5732 9.01894 18.5674 9.02939C18.3962 9.34011 18.2408 9.65926 18.1018 9.98564C16.7095 9.77429 15.2933 9.77429 13.901 9.98564C13.761 9.65844 13.6032 9.3392 13.428 9.02939C13.422 9.01916 13.4131 9.01098 13.4023 9.00591C13.3916 9.00083 13.3796 8.99911 13.3679 9.00096C12.0761 9.22367 10.8188 9.61347 9.62765 10.1605C9.61745 10.1649 9.60885 10.1723 9.60303 10.1817C7.22087 13.7391 6.56831 17.2091 6.88843 20.6361C6.88933 20.6445 6.89191 20.6526 6.89602 20.66C6.90013 20.6674 6.90568 20.6739 6.91234 20.679C8.29945 21.7061 9.85094 22.4901 11.5006 22.9975C11.5122 23.0009 11.5246 23.0008 11.5362 22.997C11.5477 22.9932 11.5578 22.986 11.5651 22.9763C11.9194 22.4942 12.2334 21.9837 12.5037 21.45C12.5075 21.4427 12.5096 21.4347 12.51 21.4265C12.5104 21.4183 12.509 21.4101 12.506 21.4024C12.503 21.3948 12.4984 21.3879 12.4925 21.3821C12.4866 21.3764 12.4796 21.372 12.4719 21.3691C11.9768 21.1797 11.4975 20.9514 11.0385 20.6862C11.0302 20.6813 11.0232 20.6745 11.0181 20.6662C11.0131 20.658 11.0101 20.6486 11.0096 20.6389C11.009 20.6293 11.0108 20.6196 11.0149 20.6108C11.0189 20.6021 11.025 20.5944 11.0327 20.5885C11.1291 20.5164 11.2254 20.4413 11.3174 20.3655C11.3256 20.3588 11.3355 20.3545 11.346 20.3531C11.3564 20.3516 11.3671 20.3532 11.3768 20.3575C14.3839 21.7299 17.6396 21.7299 20.6112 20.3575C20.6208 20.3529 20.6316 20.3512 20.6423 20.3524C20.6529 20.3537 20.663 20.358 20.6713 20.3648C20.7633 20.4406 20.8596 20.5164 20.9567 20.5885C20.9644 20.5943 20.9706 20.6019 20.9747 20.6107C20.9788 20.6195 20.9807 20.6291 20.9802 20.6387C20.9797 20.6484 20.9768 20.6578 20.9718 20.6661C20.9668 20.6744 20.9599 20.6813 20.9516 20.6862C20.4936 20.9536 20.0139 21.1818 19.5175 21.3684C19.5098 21.3714 19.5028 21.3759 19.497 21.3817C19.4911 21.3875 19.4866 21.3945 19.4836 21.4022C19.4807 21.4099 19.4794 21.4182 19.4799 21.4264C19.4803 21.4346 19.4825 21.4427 19.4863 21.45C19.7612 21.9808 20.0747 22.4906 20.4242 22.9755C20.4313 22.9854 20.4414 22.9929 20.4529 22.9968C20.4645 23.0007 20.477 23.0009 20.4887 22.9974C22.1413 22.4917 23.6955 21.7077 25.0844 20.679C25.0911 20.6741 25.0968 20.6678 25.1009 20.6605C25.105 20.6532 25.1075 20.6451 25.1083 20.6368C25.4915 16.6748 24.4667 13.2333 22.3916 10.1824ZM12.9528 18.5494C12.0475 18.5494 11.3015 17.7185 11.3015 16.6982C11.3015 15.6778 12.033 14.8469 12.9528 14.8469C13.8799 14.8469 14.6187 15.685 14.6042 16.6981C14.6042 17.7185 13.8726 18.5494 12.9528 18.5494ZM19.0585 18.5494C18.1531 18.5494 17.4071 17.7185 17.4071 16.6982C17.4071 15.6778 18.1387 14.8469 19.0585 14.8469C19.9856 14.8469 20.7243 15.685 20.7098 16.6981C20.7098 17.7185 19.9856 18.5494 19.0585 18.5494Z" fill="#E2E8F0"/>
</g>
<defs>
<clipPath id="clip0_9_309">
<rect width="20" height="20" fill="white" transform="translate(6 6)"/>
</clipPath>
</defs>
</svg>
