<svg width="32" height="32" viewBox="0 0 32 32" fill="none" xmlns="http://www.w3.org/2000/svg">
<rect width="32" height="32" rx="16" fill="black" fill-opacity="0.06"/>
<g clip-path="url(#clip0_9_313)">
<path d="M16 6.3125C10.6484 6.3125 6.3125 10.6484 6.3125 16C6.3125 21.3516 10.6484 25.6875 16 25.6875C21.3516 25.6875 25.6875 21.3516 25.6875 16C25.6875 10.6484 21.3516 6.3125 16 6.3125ZM20.7578 12.9492L19.168 20.4414C19.0508 20.9727 18.7344 21.1016 18.293 20.8516L15.8711 19.0664L14.7031 20.1914C14.5742 20.3203 14.4648 20.4297 14.2148 20.4297L14.3867 17.9648L18.875 13.9102C19.0703 13.7383 18.832 13.6406 18.5742 13.8125L13.0273 17.3047L10.6367 16.5586C10.1172 16.3945 10.1055 16.0391 10.7461 15.7891L20.0859 12.1875C20.5195 12.0312 20.8984 12.293 20.7578 12.9492Z" fill="#E2E8F0"/>
</g>
<defs>
<clipPath id="clip0_9_313">
<rect width="20" height="20" fill="white" transform="translate(6 6)"/>
</clipPath>
</defs>
</svg>
