<svg width="520" height="462" viewBox="0 0 520 462" fill="none" xmlns="http://www.w3.org/2000/svg">
<path d="M79 191.5C79 85.7375 164.737 0 270.5 0C376.263 0 462 85.7375 462 191.5V441H79V191.5Z" fill="#1ED760" fill-opacity="0.5"/>
<g filter="url(#filter0_d_110_674)">
<circle cx="426" cy="70" r="42" fill="#1ED760"/>
</g>
<path d="M14.601 81.3075C14.2691 81.3075 14 80.9459 14 80.5C14 80.0541 14.2691 79.6925 14.601 79.6925H47.656V81.3075H14.601Z" fill="white" fill-opacity="0.3"/>
<path d="M47.656 78.0776C47.656 77.6317 47.925 77.2702 48.257 77.2702C48.5889 77.2702 48.858 77.6317 48.858 78.0776V82.9224C48.858 83.3683 48.5889 83.7298 48.257 83.7298C47.925 83.7298 47.656 83.3683 47.656 82.9224V78.0776Z" fill="white" fill-opacity="0.3"/>
<path d="M56.07 75.2516C56.07 74.8056 56.339 74.4441 56.671 74.4441C57.0029 74.4441 57.2719 74.8056 57.2719 75.2516V85.7484C57.2719 86.1944 57.0029 86.5559 56.671 86.5559C56.339 86.5559 56.07 86.1944 56.07 85.7484V75.2516Z" fill="white" fill-opacity="0.3"/>
<path d="M64.4839 69.8012C64.4839 69.3553 64.753 68.9938 65.0849 68.9938C65.4169 68.9938 65.6859 69.3553 65.6859 69.8012V91.1988C65.6859 91.6447 65.4169 92.0062 65.0849 92.0062C64.753 92.0062 64.4839 91.6447 64.4839 91.1988V69.8012Z" fill="white" fill-opacity="0.3"/>
<path d="M72.8979 66.2275C72.8979 65.7815 73.167 65.42 73.4989 65.42C73.8309 65.42 74.0999 65.7815 74.0999 66.2275V94.7725C74.0999 95.2185 73.8309 95.58 73.4989 95.58C73.167 95.58 72.8979 95.2185 72.8979 94.7725V66.2275Z" fill="white" fill-opacity="0.3"/>
<path d="M81.3119 62.0675C81.3119 61.6215 81.581 61.26 81.9129 61.26C82.2448 61.26 82.5139 61.6215 82.5139 62.0675V98.9325C82.5139 99.3785 82.2448 99.74 81.9129 99.74C81.581 99.74 81.3119 99.3785 81.3119 98.9325V62.0675Z" fill="white" fill-opacity="0.3"/>
<path d="M89.7259 57.6475C89.7259 57.2015 89.995 56.84 90.3269 56.84C90.6588 56.84 90.9279 57.2015 90.9279 57.6475V103.353C90.9279 103.798 90.6588 104.16 90.3269 104.16C89.995 104.16 89.7259 103.798 89.7259 103.353V57.6475Z" fill="white" fill-opacity="0.3"/>
<path d="M98.1399 53.7475C98.1399 53.3015 98.409 52.94 98.7409 52.94C99.0728 52.94 99.3419 53.3015 99.3419 53.7475V107.253C99.3419 107.698 99.0728 108.06 98.7409 108.06C98.409 108.06 98.1399 107.698 98.1399 107.253V53.7475Z" fill="white" fill-opacity="0.3"/>
<path d="M106.554 53.7475C106.554 53.3015 106.823 52.94 107.155 52.94C107.487 52.94 107.756 53.3015 107.756 53.7475V107.253C107.756 107.698 107.487 108.06 107.155 108.06C106.823 108.06 106.554 107.698 106.554 107.253V53.7475Z" fill="white" fill-opacity="0.3"/>
<path d="M114.968 56.6075C114.968 56.1615 115.237 55.8 115.569 55.8C115.901 55.8 116.17 56.1615 116.17 56.6075V104.393C116.17 104.838 115.901 105.2 115.569 105.2C115.237 105.2 114.968 104.838 114.968 104.393V56.6075Z" fill="white" fill-opacity="0.3"/>
<path d="M123.382 60.5075C123.382 60.0615 123.651 59.7 123.983 59.7C124.315 59.7 124.584 60.0615 124.584 60.5075V100.493C124.584 100.938 124.315 101.3 123.983 101.3C123.651 101.3 123.382 100.938 123.382 100.493V60.5075Z" fill="white" fill-opacity="0.3"/>
<path d="M131.796 64.4075C131.796 63.9615 132.065 63.6 132.397 63.6C132.729 63.6 132.998 63.9615 132.998 64.4075V96.5925C132.998 97.0385 132.729 97.4 132.397 97.4C132.065 97.4 131.796 97.0385 131.796 96.5925V64.4075Z" fill="white" fill-opacity="0.3"/>
<path d="M140.21 69.6075C140.21 69.1615 140.479 68.8 140.811 68.8C141.143 68.8 141.412 69.1615 141.412 69.6075V91.3925C141.412 91.8385 141.143 92.2 140.811 92.2C140.479 92.2 140.21 91.8385 140.21 91.3925V69.6075Z" fill="white" fill-opacity="0.3"/>
<path d="M148.624 75.0675C148.624 74.6215 148.893 74.26 149.225 74.26C149.557 74.26 149.826 74.6215 149.826 75.0675V85.9325C149.826 86.3785 149.557 86.74 149.225 86.74C148.893 86.74 148.624 86.3785 148.624 85.9325V75.0675Z" fill="white" fill-opacity="0.3"/>
<path d="M157.038 69.0875C157.038 68.6415 157.307 68.28 157.639 68.28C157.971 68.28 158.24 68.6415 158.24 69.0875V91.9125C158.24 92.3585 157.971 92.72 157.639 92.72C157.307 92.72 157.038 92.3585 157.038 91.9125V69.0875Z" fill="white" fill-opacity="0.3"/>
<path d="M165.452 65.1875C165.452 64.7415 165.721 64.38 166.053 64.38C166.385 64.38 166.654 64.7415 166.654 65.1875V95.8125C166.654 96.2585 166.385 96.62 166.053 96.62C165.721 96.62 165.452 96.2585 165.452 95.8125V65.1875Z" fill="white" fill-opacity="0.3"/>
<path d="M173.866 61.5475C173.866 61.1015 174.135 60.74 174.467 60.74C174.799 60.74 175.068 61.1015 175.068 61.5475V99.4525C175.068 99.8985 174.799 100.26 174.467 100.26C174.135 100.26 173.866 99.8985 173.866 99.4525V61.5475Z" fill="white" fill-opacity="0.3"/>
<path d="M182.28 57.9075C182.28 57.4615 182.549 57.1 182.881 57.1C183.213 57.1 183.482 57.4615 183.482 57.9075V103.093C183.482 103.538 183.213 103.9 182.881 103.9C182.549 103.9 182.28 103.538 182.28 103.093V57.9075Z" fill="white" fill-opacity="0.3"/>
<path d="M190.694 52.1875C190.694 51.7415 190.963 51.38 191.295 51.38C191.627 51.38 191.896 51.7415 191.896 52.1875V108.813C191.896 109.258 191.627 109.62 191.295 109.62C190.963 109.62 190.694 109.258 190.694 108.813V52.1875Z" fill="white" fill-opacity="0.3"/>
<path d="M199.108 56.6075C199.108 56.1615 199.377 55.8 199.709 55.8C200.041 55.8 200.31 56.1615 200.31 56.6075V104.393C200.31 104.838 200.041 105.2 199.709 105.2C199.377 105.2 199.108 104.838 199.108 104.393V56.6075Z" fill="white" fill-opacity="0.3"/>
<path d="M207.522 52.1875C207.522 51.7415 207.791 51.38 208.123 51.38C208.455 51.38 208.724 51.7415 208.724 52.1875V108.813C208.724 109.258 208.455 109.62 208.123 109.62C207.791 109.62 207.522 109.258 207.522 108.813V52.1875Z" fill="white" fill-opacity="0.3"/>
<path d="M215.936 48.8075C215.936 48.3615 216.205 48 216.537 48C216.869 48 217.138 48.3615 217.138 48.8075V112.193C217.138 112.638 216.869 113 216.537 113C216.205 113 215.936 112.638 215.936 112.193V48.8075Z" fill="white" fill-opacity="0.3"/>
<path d="M224.35 49.0675C224.35 48.6215 224.619 48.26 224.951 48.26C225.283 48.26 225.552 48.6215 225.552 49.0675V111.933C225.552 112.378 225.283 112.74 224.951 112.74C224.619 112.74 224.35 112.378 224.35 111.933V49.0675Z" fill="white" fill-opacity="0.3"/>
<path d="M232.764 60.1118C232.764 59.6659 233.033 59.3043 233.365 59.3043C233.697 59.3043 233.966 59.6659 233.966 60.1118V100.888C233.966 101.334 233.697 101.696 233.365 101.696C233.033 101.696 232.764 101.334 232.764 100.888V60.1118Z" fill="white" fill-opacity="0.3"/>
<path d="M241.178 53.2275C241.178 52.7815 241.447 52.42 241.779 52.42C242.111 52.42 242.38 52.7815 242.38 53.2275V107.773C242.38 108.218 242.111 108.58 241.779 108.58C241.447 108.58 241.178 108.218 241.178 107.773V53.2275Z" fill="white" fill-opacity="0.3"/>
<path d="M249.592 57.1275C249.592 56.6815 249.861 56.32 250.193 56.32C250.525 56.32 250.794 56.6815 250.794 57.1275V103.873C250.794 104.318 250.525 104.68 250.193 104.68C249.861 104.68 249.592 104.318 249.592 103.873V57.1275Z" fill="white" fill-opacity="0.3"/>
<path d="M258.006 61.0275C258.006 60.5815 258.275 60.22 258.607 60.22C258.939 60.22 259.208 60.5815 259.208 61.0275V99.9725C259.208 100.418 258.939 100.78 258.607 100.78C258.275 100.78 258.006 100.418 258.006 99.9725V61.0275Z" fill="white" fill-opacity="0.3"/>
<path d="M266.42 65.7075C266.42 65.2615 266.689 64.9 267.021 64.9C267.353 64.9 267.622 65.2615 267.622 65.7075V95.2925C267.622 95.7385 267.353 96.1 267.021 96.1C266.689 96.1 266.42 95.7385 266.42 95.2925V65.7075Z" fill="white" fill-opacity="0.3"/>
<path d="M274.834 71.4275C274.834 70.9815 275.103 70.62 275.435 70.62C275.767 70.62 276.036 70.9815 276.036 71.4275V89.5725C276.036 90.0185 275.767 90.38 275.435 90.38C275.103 90.38 274.834 90.0185 274.834 89.5725V71.4275Z" fill="white" fill-opacity="0.3"/>
<path d="M283.248 65.7075C283.248 65.2615 283.517 64.9 283.849 64.9C284.181 64.9 284.45 65.2615 284.45 65.7075V95.2925C284.45 95.7385 284.181 96.1 283.849 96.1C283.517 96.1 283.248 95.7385 283.248 95.2925V65.7075Z" fill="white" fill-opacity="0.3"/>
<path d="M291.662 57.1275C291.662 56.6815 291.931 56.32 292.263 56.32C292.595 56.32 292.864 56.6815 292.864 57.1275V103.873C292.864 104.318 292.595 104.68 292.263 104.68C291.931 104.68 291.662 104.318 291.662 103.873V57.1275Z" fill="white" fill-opacity="0.3"/>
<path d="M300.076 61.5248C300.076 61.0789 300.345 60.7174 300.677 60.7174C301.009 60.7174 301.278 61.0789 301.278 61.5248V99.4752C301.278 99.9211 301.009 100.283 300.677 100.283C300.345 100.283 300.076 99.9211 300.076 99.4752V61.5248Z" fill="white" fill-opacity="0.3"/>
<path d="M308.49 66.3696C308.49 65.9236 308.759 65.5621 309.091 65.5621C309.423 65.5621 309.692 65.9236 309.692 66.3696V94.6304C309.692 95.0764 309.423 95.4379 309.091 95.4379C308.759 95.4379 308.49 95.0764 308.49 94.6304V66.3696Z" fill="white" fill-opacity="0.3"/>
<path d="M316.904 70.6087C316.904 70.1628 317.173 69.8012 317.505 69.8012C317.837 69.8012 318.106 70.1628 318.106 70.6087V90.3913C318.106 90.8372 317.837 91.1988 317.505 91.1988C317.173 91.1988 316.904 90.8372 316.904 90.3913V70.6087Z" fill="white" fill-opacity="0.3"/>
<path d="M325.318 67.177C325.318 66.7311 325.587 66.3696 325.919 66.3696C326.251 66.3696 326.52 66.7311 326.52 67.177V93.823C326.52 94.2689 326.251 94.6304 325.919 94.6304C325.587 94.6304 325.318 94.2689 325.318 93.823V67.177Z" fill="white" fill-opacity="0.3"/>
<path d="M333.732 63.5435C333.732 63.0975 334.001 62.736 334.333 62.736C334.665 62.736 334.934 63.0975 334.934 63.5435V97.4565C334.934 97.9025 334.665 98.264 334.333 98.264C334.001 98.264 333.732 97.9025 333.732 97.4565V63.5435Z" fill="white" fill-opacity="0.3"/>
<path d="M342.146 65.9658C342.146 65.5199 342.415 65.1584 342.747 65.1584C343.079 65.1584 343.348 65.5199 343.348 65.9658V95.0342C343.348 95.4801 343.079 95.8416 342.747 95.8416C342.415 95.8416 342.146 95.4801 342.146 95.0342V65.9658Z" fill="white" fill-opacity="0.3"/>
<path d="M350.56 63.1398C350.56 62.6938 350.829 62.3323 351.161 62.3323C351.493 62.3323 351.762 62.6938 351.762 63.1398V97.8602C351.762 98.3062 351.493 98.6677 351.161 98.6677C350.829 98.6677 350.56 98.3062 350.56 97.8602V63.1398Z" fill="white" fill-opacity="0.3"/>
<path d="M358.974 66.7733C358.974 66.3273 359.243 65.9658 359.575 65.9658C359.906 65.9658 360.176 66.3273 360.176 66.7733V94.2267C360.176 94.6727 359.906 95.0342 359.575 95.0342C359.243 95.0342 358.974 94.6727 358.974 94.2267V66.7733Z" fill="white" fill-opacity="0.3"/>
<path d="M367.388 69.5994C367.388 69.1534 367.657 68.7919 367.989 68.7919C368.32 68.7919 368.59 69.1534 368.59 69.5994V91.4006C368.59 91.8466 368.32 92.2081 367.989 92.2081C367.657 92.2081 367.388 91.8466 367.388 91.4006V69.5994Z" fill="white" fill-opacity="0.3"/>
<path d="M375.802 73.0311C375.802 72.5851 376.071 72.2236 376.403 72.2236C376.734 72.2236 377.004 72.5851 377.004 73.0311V87.9689C377.004 88.4149 376.734 88.7764 376.403 88.7764C376.071 88.7764 375.802 88.4149 375.802 87.9689V73.0311Z" fill="white" fill-opacity="0.3"/>
<path d="M384.216 73.0311C384.216 72.5851 384.485 72.2236 384.817 72.2236C385.148 72.2236 385.418 72.5851 385.418 73.0311V87.9689C385.418 88.4149 385.148 88.7764 384.817 88.7764C384.485 88.7764 384.216 88.4149 384.216 87.9689V73.0311Z" fill="white" fill-opacity="0.3"/>
<path d="M385.418 81.3075V79.6925H434.399C434.731 79.6925 435 80.0541 435 80.5C435 80.9459 434.731 81.3075 434.399 81.3075H385.418Z" fill="white" fill-opacity="0.3"/>
<g filter="url(#filter1_d_110_674)">
<circle cx="59" cy="392" r="42" fill="#1ED760"/>
</g>
<g filter="url(#filter2_d_110_674)">
<circle cx="152.5" cy="33.5" r="14.5" fill="#1ED760"/>
</g>
<g filter="url(#filter3_b_110_674)">
<circle cx="83" cy="415" r="47" fill="url(#paint0_linear_110_674)"/>
<circle cx="83" cy="415" r="46.3947" stroke="url(#paint1_linear_110_674)" stroke-width="1.21053"/>
</g>
<path d="M67.8933 406.237V423.782C67.8933 427.375 71.7983 429.63 74.915 427.833L82.5233 423.452L90.1316 419.052C93.2483 417.255 93.2483 412.763 90.1316 410.967L82.5233 406.567L74.915 402.185C71.7983 400.388 67.8933 402.625 67.8933 406.237Z" fill="white"/>
<path d="M98.1067 427.705C97.355 427.705 96.7317 427.082 96.7317 426.33V403.67C96.7317 402.918 97.355 402.295 98.1067 402.295C98.8584 402.295 99.4817 402.918 99.4817 403.67V426.33C99.4817 427.082 98.8767 427.705 98.1067 427.705Z" fill="white"/>
<g filter="url(#filter4_d_110_674)">
<path fill-rule="evenodd" clip-rule="evenodd" d="M441.832 135.666C442.554 136.12 442.772 137.074 442.318 137.796C435.081 149.304 420.538 153.761 403.415 154.976C386.215 156.197 365.838 154.179 346.282 152.183L345.012 152.053C325.826 150.094 307.552 148.228 293.581 149.396C286.444 149.993 280.604 151.372 276.39 153.815C272.251 156.213 269.66 159.64 268.916 164.55C268.194 169.319 270.113 173.769 274.522 178.108C278.96 182.475 285.787 186.579 294.47 190.523C311.824 198.405 336.069 205.42 361.997 212.684C364.17 213.292 366.354 213.902 368.546 214.515C392.46 221.198 417.359 228.155 439.048 236.223C462.663 245.006 482.788 255.211 493.669 268.056C504.597 280.956 507.246 296.103 503.221 309.595C499.203 323.063 488.576 334.757 473.191 340.915C442.356 353.258 392.873 343.32 338.411 282.468C252.046 185.968 130.994 176.216 81.371 183.39C80.5265 183.512 79.7429 182.926 79.6208 182.082C79.4987 181.237 80.0844 180.453 80.9289 180.331C131.239 173.058 253.459 182.913 340.714 280.407C394.765 340.801 442.944 349.695 472.043 338.046C486.626 332.209 496.534 321.202 500.26 308.711C503.979 296.245 501.581 282.177 491.311 270.053C480.995 257.875 461.563 247.894 437.971 239.119C416.41 231.099 391.637 224.176 367.694 217.485C365.509 216.875 363.332 216.266 361.164 215.659C335.296 208.412 310.805 201.335 293.192 193.336C284.391 189.339 277.177 185.055 272.355 180.31C267.504 175.537 264.943 170.152 265.861 164.087C266.758 158.162 269.971 153.963 274.84 151.141C279.634 148.363 286.005 146.929 293.324 146.317C307.586 145.124 326.103 147.016 345.116 148.958L346.596 149.109C366.218 151.112 386.314 153.092 403.197 151.894C420.158 150.691 433.311 146.313 439.702 136.151C440.156 135.429 441.11 135.211 441.832 135.666Z" fill="#1ED760"/>
</g>
<defs>
<filter id="filter0_d_110_674" x="367.52" y="19.7599" width="116.96" height="116.96" filterUnits="userSpaceOnUse" color-interpolation-filters="sRGB">
<feFlood flood-opacity="0" result="BackgroundImageFix"/>
<feColorMatrix in="SourceAlpha" type="matrix" values="0 0 0 0 0 0 0 0 0 0 0 0 0 0 0 0 0 0 127 0" result="hardAlpha"/>
<feOffset dy="8.2401"/>
<feGaussianBlur stdDeviation="8.2401"/>
<feComposite in2="hardAlpha" operator="out"/>
<feColorMatrix type="matrix" values="0 0 0 0 0.883218 0 0 0 0 0.064606 0 0 0 0 0.402875 0 0 0 0.25 0"/>
<feBlend mode="normal" in2="BackgroundImageFix" result="effect1_dropShadow_110_674"/>
<feBlend mode="normal" in="SourceGraphic" in2="effect1_dropShadow_110_674" result="shape"/>
</filter>
<filter id="filter1_d_110_674" x="0.519808" y="341.76" width="116.96" height="116.96" filterUnits="userSpaceOnUse" color-interpolation-filters="sRGB">
<feFlood flood-opacity="0" result="BackgroundImageFix"/>
<feColorMatrix in="SourceAlpha" type="matrix" values="0 0 0 0 0 0 0 0 0 0 0 0 0 0 0 0 0 0 127 0" result="hardAlpha"/>
<feOffset dy="8.2401"/>
<feGaussianBlur stdDeviation="8.2401"/>
<feComposite in2="hardAlpha" operator="out"/>
<feColorMatrix type="matrix" values="0 0 0 0 0.883218 0 0 0 0 0.064606 0 0 0 0 0.402875 0 0 0 0.25 0"/>
<feBlend mode="normal" in2="BackgroundImageFix" result="effect1_dropShadow_110_674"/>
<feBlend mode="normal" in="SourceGraphic" in2="effect1_dropShadow_110_674" result="shape"/>
</filter>
<filter id="filter2_d_110_674" x="121.52" y="10.7599" width="61.9604" height="61.9604" filterUnits="userSpaceOnUse" color-interpolation-filters="sRGB">
<feFlood flood-opacity="0" result="BackgroundImageFix"/>
<feColorMatrix in="SourceAlpha" type="matrix" values="0 0 0 0 0 0 0 0 0 0 0 0 0 0 0 0 0 0 127 0" result="hardAlpha"/>
<feOffset dy="8.2401"/>
<feGaussianBlur stdDeviation="8.2401"/>
<feComposite in2="hardAlpha" operator="out"/>
<feColorMatrix type="matrix" values="0 0 0 0 0.883218 0 0 0 0 0.064606 0 0 0 0 0.402875 0 0 0 0.25 0"/>
<feBlend mode="normal" in2="BackgroundImageFix" result="effect1_dropShadow_110_674"/>
<feBlend mode="normal" in="SourceGraphic" in2="effect1_dropShadow_110_674" result="shape"/>
</filter>
<filter id="filter3_b_110_674" x="11.7895" y="343.789" width="142.421" height="142.421" filterUnits="userSpaceOnUse" color-interpolation-filters="sRGB">
<feFlood flood-opacity="0" result="BackgroundImageFix"/>
<feGaussianBlur in="BackgroundImageFix" stdDeviation="12.1053"/>
<feComposite in2="SourceAlpha" operator="in" result="effect1_backgroundBlur_110_674"/>
<feBlend mode="normal" in="SourceGraphic" in2="effect1_backgroundBlur_110_674" result="shape"/>
</filter>
<filter id="filter4_d_110_674" x="69.3046" y="125.128" width="450.116" height="234.848" filterUnits="userSpaceOnUse" color-interpolation-filters="sRGB">
<feFlood flood-opacity="0" result="BackgroundImageFix"/>
<feColorMatrix in="SourceAlpha" type="matrix" values="0 0 0 0 0 0 0 0 0 0 0 0 0 0 0 0 0 0 127 0" result="hardAlpha"/>
<feOffset dx="2.06002" dy="2.06002"/>
<feGaussianBlur stdDeviation="6.18007"/>
<feComposite in2="hardAlpha" operator="out"/>
<feColorMatrix type="matrix" values="0 0 0 0 0.909333 0 0 0 0 0.945098 0 0 0 0 0.498039 0 0 0 1 0"/>
<feBlend mode="normal" in2="BackgroundImageFix" result="effect1_dropShadow_110_674"/>
<feBlend mode="normal" in="SourceGraphic" in2="effect1_dropShadow_110_674" result="shape"/>
</filter>
<linearGradient id="paint0_linear_110_674" x1="52.5705" y1="380.955" x2="105.596" y2="456.577" gradientUnits="userSpaceOnUse">
<stop stop-color="#F5F5F5" stop-opacity="0.2"/>
<stop offset="1" stop-color="#D9D9D9" stop-opacity="0.1"/>
</linearGradient>
<linearGradient id="paint1_linear_110_674" x1="106.199" y1="456.878" x2="58.5962" y2="374.327" gradientUnits="userSpaceOnUse">
<stop stop-color="white"/>
<stop offset="1" stop-color="#BCBCBC" stop-opacity="0.5"/>
</linearGradient>
</defs>
</svg>
