<svg width="421" height="65" viewBox="0 0 421 65" fill="none" xmlns="http://www.w3.org/2000/svg">
<path d="M0.600999 33.3075C0.269076 33.3075 1.45088e-08 32.9459 0 32.5C-1.45088e-08 32.0541 0.269077 31.6925 0.600999 31.6925H33.656V33.3075H0.600999Z" fill="black" fill-opacity="0.3"/>
<path d="M33.656 30.0776C33.656 29.6317 33.925 29.2702 34.257 29.2702C34.5889 29.2702 34.858 29.6317 34.858 30.0776V34.9224C34.858 35.3683 34.5889 35.7298 34.257 35.7298C33.925 35.7298 33.656 35.3683 33.656 34.9224V30.0776Z" fill="black" fill-opacity="0.3"/>
<path d="M42.07 27.2516C42.07 26.8056 42.339 26.4441 42.671 26.4441C43.0029 26.4441 43.2719 26.8056 43.2719 27.2516V37.7484C43.2719 38.1944 43.0029 38.5559 42.671 38.5559C42.339 38.5559 42.07 38.1944 42.07 37.7484V27.2516Z" fill="black" fill-opacity="0.3"/>
<path d="M50.4839 21.8012C50.4839 21.3553 50.753 20.9938 51.0849 20.9938C51.4169 20.9938 51.6859 21.3553 51.6859 21.8012V43.1988C51.6859 43.6447 51.4169 44.0062 51.0849 44.0062C50.753 44.0062 50.4839 43.6447 50.4839 43.1988V21.8012Z" fill="black" fill-opacity="0.3"/>
<path d="M58.8979 18.2275C58.8979 17.7815 59.167 17.42 59.4989 17.42C59.8309 17.42 60.0999 17.7815 60.0999 18.2275V46.7725C60.0999 47.2185 59.8309 47.58 59.4989 47.58C59.167 47.58 58.8979 47.2185 58.8979 46.7725V18.2275Z" fill="black" fill-opacity="0.3"/>
<path d="M67.3119 14.0675C67.3119 13.6215 67.581 13.26 67.9129 13.26C68.2448 13.26 68.5139 13.6215 68.5139 14.0675V50.9325C68.5139 51.3785 68.2448 51.74 67.9129 51.74C67.581 51.74 67.3119 51.3785 67.3119 50.9325V14.0675Z" fill="black" fill-opacity="0.3"/>
<path d="M75.7259 9.64745C75.7259 9.20151 75.995 8.84 76.3269 8.84C76.6588 8.84 76.9279 9.20151 76.9279 9.64745V55.3525C76.9279 55.7985 76.6588 56.16 76.3269 56.16C75.995 56.16 75.7259 55.7985 75.7259 55.3525V9.64745Z" fill="black" fill-opacity="0.3"/>
<path d="M84.1399 5.74745C84.1399 5.30151 84.409 4.94 84.7409 4.94C85.0728 4.94 85.3419 5.30151 85.3419 5.74745V59.2525C85.3419 59.6985 85.0728 60.06 84.7409 60.06C84.409 60.06 84.1399 59.6985 84.1399 59.2525V5.74745Z" fill="black" fill-opacity="0.3"/>
<path d="M92.5539 5.74745C92.5539 5.30151 92.823 4.94 93.1549 4.94C93.4868 4.94 93.7559 5.30151 93.7559 5.74745V59.2525C93.7559 59.6985 93.4868 60.06 93.1549 60.06C92.823 60.06 92.5539 59.6985 92.5539 59.2525V5.74745Z" fill="black" fill-opacity="0.3"/>
<path d="M100.968 8.60745C100.968 8.16151 101.237 7.8 101.569 7.8C101.901 7.8 102.17 8.16151 102.17 8.60745V56.3925C102.17 56.8385 101.901 57.2 101.569 57.2C101.237 57.2 100.968 56.8385 100.968 56.3925V8.60745Z" fill="black" fill-opacity="0.3"/>
<path d="M109.382 12.5075C109.382 12.0615 109.651 11.7 109.983 11.7C110.315 11.7 110.584 12.0615 110.584 12.5075V52.4925C110.584 52.9385 110.315 53.3 109.983 53.3C109.651 53.3 109.382 52.9385 109.382 52.4925V12.5075Z" fill="black" fill-opacity="0.3"/>
<path d="M117.796 16.4075C117.796 15.9615 118.065 15.6 118.397 15.6C118.729 15.6 118.998 15.9615 118.998 16.4075V48.5925C118.998 49.0385 118.729 49.4 118.397 49.4C118.065 49.4 117.796 49.0385 117.796 48.5925V16.4075Z" fill="black" fill-opacity="0.3"/>
<path d="M126.21 21.6075C126.21 21.1615 126.479 20.8 126.811 20.8C127.143 20.8 127.412 21.1615 127.412 21.6075V43.3925C127.412 43.8385 127.143 44.2 126.811 44.2C126.479 44.2 126.21 43.8385 126.21 43.3925V21.6075Z" fill="black" fill-opacity="0.3"/>
<path d="M134.624 27.0675C134.624 26.6215 134.893 26.26 135.225 26.26C135.557 26.26 135.826 26.6215 135.826 27.0675V37.9325C135.826 38.3785 135.557 38.74 135.225 38.74C134.893 38.74 134.624 38.3785 134.624 37.9325V27.0675Z" fill="black" fill-opacity="0.3"/>
<path d="M143.038 21.0875C143.038 20.6415 143.307 20.28 143.639 20.28C143.971 20.28 144.24 20.6415 144.24 21.0875V43.9125C144.24 44.3585 143.971 44.72 143.639 44.72C143.307 44.72 143.038 44.3585 143.038 43.9125V21.0875Z" fill="black" fill-opacity="0.3"/>
<path d="M151.452 17.1875C151.452 16.7415 151.721 16.38 152.053 16.38C152.385 16.38 152.654 16.7415 152.654 17.1875V47.8125C152.654 48.2585 152.385 48.62 152.053 48.62C151.721 48.62 151.452 48.2585 151.452 47.8125V17.1875Z" fill="black" fill-opacity="0.3"/>
<path d="M159.866 13.5475C159.866 13.1015 160.135 12.74 160.467 12.74C160.799 12.74 161.068 13.1015 161.068 13.5475V51.4525C161.068 51.8985 160.799 52.26 160.467 52.26C160.135 52.26 159.866 51.8985 159.866 51.4525V13.5475Z" fill="black" fill-opacity="0.3"/>
<path d="M168.28 9.90745C168.28 9.46151 168.549 9.1 168.881 9.1C169.213 9.1 169.482 9.46151 169.482 9.90745V55.0925C169.482 55.5385 169.213 55.9 168.881 55.9C168.549 55.9 168.28 55.5385 168.28 55.0925V9.90745Z" fill="black" fill-opacity="0.3"/>
<path d="M176.694 4.18746C176.694 3.74151 176.963 3.38 177.295 3.38C177.627 3.38 177.896 3.74151 177.896 4.18745V60.8125C177.896 61.2585 177.627 61.62 177.295 61.62C176.963 61.62 176.694 61.2585 176.694 60.8125V4.18746Z" fill="black" fill-opacity="0.3"/>
<path d="M185.108 8.60745C185.108 8.16151 185.377 7.8 185.709 7.8C186.041 7.8 186.31 8.16151 186.31 8.60745V56.3925C186.31 56.8385 186.041 57.2 185.709 57.2C185.377 57.2 185.108 56.8385 185.108 56.3925V8.60745Z" fill="black" fill-opacity="0.3"/>
<path d="M193.522 4.18746C193.522 3.74151 193.791 3.38 194.123 3.38C194.455 3.38 194.724 3.74151 194.724 4.18745V60.8125C194.724 61.2585 194.455 61.62 194.123 61.62C193.791 61.62 193.522 61.2585 193.522 60.8125V4.18746Z" fill="black" fill-opacity="0.3"/>
<path d="M201.936 0.807455C201.936 0.361511 202.205 0 202.537 0C202.869 0 203.138 0.361509 203.138 0.807453V64.1925C203.138 64.6385 202.869 65 202.537 65C202.205 65 201.936 64.6385 201.936 64.1925V0.807455Z" fill="black" fill-opacity="0.3"/>
<path d="M210.35 1.06745C210.35 0.621507 210.619 0.259999 210.951 0.259999C211.283 0.259999 211.552 0.621508 211.552 1.06745V63.9325C211.552 64.3785 211.283 64.74 210.951 64.74C210.619 64.74 210.35 64.3785 210.35 63.9325V1.06745Z" fill="black" fill-opacity="0.3"/>
<path d="M218.764 12.1118C218.764 11.6659 219.033 11.3043 219.365 11.3043C219.697 11.3043 219.966 11.6659 219.966 12.1118V52.8882C219.966 53.3341 219.697 53.6957 219.365 53.6957C219.033 53.6957 218.764 53.3341 218.764 52.8882V12.1118Z" fill="black" fill-opacity="0.3"/>
<path d="M227.178 5.22745C227.178 4.78151 227.447 4.42 227.779 4.42C228.111 4.42 228.38 4.78151 228.38 5.22745V59.7725C228.38 60.2185 228.111 60.58 227.779 60.58C227.447 60.58 227.178 60.2185 227.178 59.7725V5.22745Z" fill="black" fill-opacity="0.3"/>
<path d="M235.592 9.12746C235.592 8.68151 235.861 8.32 236.193 8.32C236.525 8.32 236.794 8.68151 236.794 9.12745V55.8725C236.794 56.3185 236.525 56.68 236.193 56.68C235.861 56.68 235.592 56.3185 235.592 55.8725V9.12746Z" fill="black" fill-opacity="0.3"/>
<path d="M244.006 13.0275C244.006 12.5815 244.275 12.22 244.607 12.22C244.939 12.22 245.208 12.5815 245.208 13.0275V51.9725C245.208 52.4185 244.939 52.78 244.607 52.78C244.275 52.78 244.006 52.4185 244.006 51.9725V13.0275Z" fill="black" fill-opacity="0.3"/>
<path d="M252.42 17.7075C252.42 17.2615 252.689 16.9 253.021 16.9C253.353 16.9 253.622 17.2615 253.622 17.7075V47.2925C253.622 47.7385 253.353 48.1 253.021 48.1C252.689 48.1 252.42 47.7385 252.42 47.2925V17.7075Z" fill="black" fill-opacity="0.3"/>
<path d="M260.834 23.4275C260.834 22.9815 261.103 22.62 261.435 22.62C261.767 22.62 262.036 22.9815 262.036 23.4275V41.5725C262.036 42.0185 261.767 42.38 261.435 42.38C261.103 42.38 260.834 42.0185 260.834 41.5725V23.4275Z" fill="black" fill-opacity="0.3"/>
<path d="M269.248 17.7075C269.248 17.2615 269.517 16.9 269.849 16.9C270.181 16.9 270.45 17.2615 270.45 17.7075V47.2925C270.45 47.7385 270.181 48.1 269.849 48.1C269.517 48.1 269.248 47.7385 269.248 47.2925V17.7075Z" fill="black" fill-opacity="0.3"/>
<path d="M277.662 9.12746C277.662 8.68151 277.931 8.32 278.263 8.32C278.595 8.32 278.864 8.68151 278.864 9.12745V55.8725C278.864 56.3185 278.595 56.68 278.263 56.68C277.931 56.68 277.662 56.3185 277.662 55.8725V9.12746Z" fill="black" fill-opacity="0.3"/>
<path d="M286.076 13.5248C286.076 13.0789 286.345 12.7174 286.677 12.7174C287.009 12.7174 287.278 13.0789 287.278 13.5248V51.4752C287.278 51.9211 287.009 52.2826 286.677 52.2826C286.345 52.2826 286.076 51.9211 286.076 51.4752V13.5248Z" fill="black" fill-opacity="0.3"/>
<path d="M294.49 18.3696C294.49 17.9236 294.759 17.5621 295.091 17.5621C295.423 17.5621 295.692 17.9236 295.692 18.3696V46.6304C295.692 47.0764 295.423 47.4379 295.091 47.4379C294.759 47.4379 294.49 47.0764 294.49 46.6304V18.3696Z" fill="black" fill-opacity="0.3"/>
<path d="M302.904 22.6087C302.904 22.1628 303.173 21.8012 303.505 21.8012C303.837 21.8012 304.106 22.1628 304.106 22.6087V42.3913C304.106 42.8372 303.837 43.1988 303.505 43.1988C303.173 43.1988 302.904 42.8372 302.904 42.3913V22.6087Z" fill="black" fill-opacity="0.3"/>
<path d="M311.318 19.177C311.318 18.7311 311.587 18.3696 311.919 18.3696C312.251 18.3696 312.52 18.7311 312.52 19.177V45.823C312.52 46.2689 312.251 46.6304 311.919 46.6304C311.587 46.6304 311.318 46.2689 311.318 45.823V19.177Z" fill="black" fill-opacity="0.3"/>
<path d="M319.732 15.5435C319.732 15.0975 320.001 14.736 320.333 14.736C320.665 14.736 320.934 15.0975 320.934 15.5435V49.4565C320.934 49.9025 320.665 50.264 320.333 50.264C320.001 50.264 319.732 49.9025 319.732 49.4565V15.5435Z" fill="black" fill-opacity="0.3"/>
<path d="M328.146 17.9658C328.146 17.5199 328.415 17.1584 328.747 17.1584C329.079 17.1584 329.348 17.5199 329.348 17.9658V47.0342C329.348 47.4801 329.079 47.8416 328.747 47.8416C328.415 47.8416 328.146 47.4801 328.146 47.0342V17.9658Z" fill="black" fill-opacity="0.3"/>
<path d="M336.56 15.1398C336.56 14.6938 336.829 14.3323 337.161 14.3323C337.493 14.3323 337.762 14.6938 337.762 15.1398V49.8602C337.762 50.3062 337.493 50.6677 337.161 50.6677C336.829 50.6677 336.56 50.3062 336.56 49.8602V15.1398Z" fill="black" fill-opacity="0.3"/>
<path d="M344.974 18.7733C344.974 18.3273 345.243 17.9658 345.575 17.9658C345.907 17.9658 346.176 18.3273 346.176 18.7733V46.2267C346.176 46.6727 345.907 47.0342 345.575 47.0342C345.243 47.0342 344.974 46.6727 344.974 46.2267V18.7733Z" fill="black" fill-opacity="0.3"/>
<path d="M353.388 21.5994C353.388 21.1534 353.657 20.7919 353.989 20.7919C354.321 20.7919 354.59 21.1534 354.59 21.5994V43.4006C354.59 43.8466 354.321 44.2081 353.989 44.2081C353.657 44.2081 353.388 43.8466 353.388 43.4006V21.5994Z" fill="black" fill-opacity="0.3"/>
<path d="M361.802 25.0311C361.802 24.5851 362.071 24.2236 362.403 24.2236C362.735 24.2236 363.004 24.5851 363.004 25.0311V39.9689C363.004 40.4149 362.735 40.7764 362.403 40.7764C362.071 40.7764 361.802 40.4149 361.802 39.9689V25.0311Z" fill="black" fill-opacity="0.3"/>
<path d="M370.216 25.0311C370.216 24.5851 370.485 24.2236 370.817 24.2236C371.148 24.2236 371.418 24.5851 371.418 25.0311V39.9689C371.418 40.4149 371.148 40.7764 370.817 40.7764C370.485 40.7764 370.216 40.4149 370.216 39.9689V25.0311Z" fill="black" fill-opacity="0.3"/>
<path d="M371.418 33.3075V31.6925H420.399C420.731 31.6925 421 32.0541 421 32.5C421 32.9459 420.731 33.3075 420.399 33.3075H371.418Z" fill="black" fill-opacity="0.3"/>
</svg>
