<svg width="1920" height="280" viewBox="0 0 1920 280" fill="none" xmlns="http://www.w3.org/2000/svg">
<path d="M0 139.059H527.431C528.265 139.059 529.013 138.541 529.304 137.758L579.772 2.45604C580.499 0.507759 583.347 0.824599 583.627 2.88495L620.64 274.498C620.952 276.789 624.256 276.811 624.6 274.525L654.948 72.4909C655.279 70.2856 658.426 70.195 658.883 72.3776L683.712 190.816C684.144 192.877 687.057 192.956 687.601 190.922L732.165 24.2393C732.722 22.1559 735.728 22.3078 736.072 24.4367L760.68 176.686C760.964 178.442 763.227 178.981 764.273 177.543L791.647 139.883C792.023 139.366 792.624 139.059 793.265 139.059H1418.59C1419.44 139.059 1420.2 139.598 1420.48 140.401L1446.75 215.829C1447.4 217.678 1450.04 217.596 1450.57 215.711L1484.54 94.4986C1485.11 92.4618 1488.04 92.5899 1488.43 94.6687L1522.63 276.49C1523.05 278.711 1526.26 278.642 1526.58 276.405L1559.4 48.4613C1559.71 46.2753 1562.82 46.1374 1563.32 48.2868L1597.61 193.527C1598.04 195.362 1600.54 195.633 1601.36 193.934L1627.2 140.193C1627.53 139.5 1628.23 139.059 1629 139.059H1920" stroke="url(#paint0_linear_2_969)" stroke-width="2"/>
<defs>
<linearGradient id="paint0_linear_2_969" x1="400.382" y1="-76.7037" x2="493.136" y2="466.452" gradientUnits="userSpaceOnUse">
<stop stop-color="white" stop-opacity="0.3"/>
<stop offset="1" stop-color="white" stop-opacity="0.05"/>
</linearGradient>
</defs>
</svg>
